<svg xmlns="http://www.w3.org/2000/svg" xmlns:xlink="http://www.w3.org/1999/xlink" viewBox="0 0 500 250.2"><defs><style>.cls-1{fill:url(#linear-gradient);}.cls-2{fill:url(#linear-gradient-2);}.cls-3{fill:url(#linear-gradient-3);}.cls-4{fill:url(#linear-gradient-4);}.cls-5{fill:url(#linear-gradient-5);}.cls-6{fill:url(#linear-gradient-6);}.cls-7{fill:url(#linear-gradient-7);}.cls-8{fill:url(#linear-gradient-8);}</style><linearGradient id="linear-gradient" x1="-56.47" y1="137.06" x2="427.72" y2="372.57" gradientUnits="userSpaceOnUse"><stop offset="0" stop-color="#50341f"/><stop offset="0.08" stop-color="#503428"/><stop offset="0.22" stop-color="#503242"/><stop offset="0.39" stop-color="#4f316b"/><stop offset="0.51" stop-color="#4f2f8e"/><stop offset="0.99" stop-color="#be9572"/></linearGradient><linearGradient id="linear-gradient-2" x1="-42.94" y1="109.26" x2="441.24" y2="344.77" xlink:href="#linear-gradient"/><linearGradient id="linear-gradient-3" x1="-29.03" y1="80.65" x2="455.16" y2="316.16" xlink:href="#linear-gradient"/><linearGradient id="linear-gradient-4" x1="-15.53" y1="52.91" x2="468.65" y2="288.42" xlink:href="#linear-gradient"/><linearGradient id="linear-gradient-5" x1="-3.88" y1="28.96" x2="480.3" y2="264.46" xlink:href="#linear-gradient"/><linearGradient id="linear-gradient-6" x1="10.03" y1="0.35" x2="494.22" y2="235.86" xlink:href="#linear-gradient"/><linearGradient id="linear-gradient-7" x1="25.85" y1="-32.18" x2="510.04" y2="203.33" xlink:href="#linear-gradient"/><linearGradient id="linear-gradient-8" x1="38.13" y1="-57.42" x2="522.32" y2="178.08" xlink:href="#linear-gradient"/></defs><g id="Layer_2" data-name="Layer 2"><g id="Layer_1-2" data-name="Layer 1"><path d="M66.4,217.6c0-14.5-5.8-24.2-23.6-43.5-13.1-14.1-17-20.2-17-28.5s3.7-12.7,10.2-12.7,10.1,5.3,10.1,15.5v3.8L64,150.1v-3.4C64,126.9,53.5,114,35.8,114S7.6,126.9,7.6,146.5c0,14.6,5.3,24.8,23.6,43.5,13.9,14.2,17,20.3,17,28.6s-4.5,12.6-11.9,12.6-11.9-5.8-11.9-15.5v-4.9L6.6,212.9v4.7c0,18.9,12.2,32.6,29.9,32.6S66.4,236.5,66.4,217.6Z"/><path class="cls-1" d="M66.4,217.6c0-14.5-5.8-24.2-23.6-43.5-13.1-14.1-17-20.2-17-28.5s3.7-12.7,10.2-12.7,10.1,5.3,10.1,15.5v3.8L64,150.1v-3.4C64,126.9,53.5,114,35.8,114S7.6,126.9,7.6,146.5c0,14.6,5.3,24.8,23.6,43.5,13.9,14.2,17,20.3,17,28.6s-4.5,12.6-11.9,12.6-11.9-5.8-11.9-15.5v-4.9L6.6,212.9v4.7c0,18.9,12.2,32.6,29.9,32.6S66.4,236.5,66.4,217.6Z"/><polygon points="95.8 190.6 117.8 190.6 117.8 248.3 136.3 248.3 136.3 115.9 117.8 123.7 117.8 171.7 95.8 171.7 95.8 115.9 77.2 123.7 77.2 248.3 95.8 248.3 95.8 190.6"/><polygon class="cls-2" points="95.8 190.6 117.8 190.6 117.8 248.3 136.3 248.3 136.3 115.9 117.8 123.7 117.8 171.7 95.8 171.7 95.8 115.9 77.2 123.7 77.2 248.3 95.8 248.3 95.8 190.6"/><path d="M209.3,218.2V146c0-19.1-11.9-32-29.8-32s-29.7,12.9-29.7,32v72.2c0,19.1,11.9,32,29.7,32S209.3,237.3,209.3,218.2Zm-18.6,0c0,8.3-4.4,13-11.2,13s-11.2-4.7-11.2-13V146c0-8.3,4.4-13.1,11.2-13.1s11.2,4.8,11.2,13.1Z"/><path class="cls-3" d="M209.3,218.2V146c0-19.1-11.9-32-29.8-32s-29.7,12.9-29.7,32v72.2c0,19.1,11.9,32,29.7,32S209.3,237.3,209.3,218.2Zm-18.6,0c0,8.3-4.4,13-11.2,13s-11.2-4.7-11.2-13V146c0-8.3,4.4-13.1,11.2-13.1s11.2,4.8,11.2,13.1Z"/><polygon points="276.4 229.4 242.3 229.4 242.3 190.6 269.4 190.6 269.4 171.7 242.3 171.7 242.3 134.8 276.4 134.8 276.4 115.9 223.7 115.9 223.7 248.3 276.4 248.3 276.4 229.4"/><polygon class="cls-4" points="276.4 229.4 242.3 229.4 242.3 190.6 269.4 190.6 269.4 171.7 242.3 171.7 242.3 134.8 276.4 134.8 276.4 115.9 223.7 115.9 223.7 248.3 276.4 248.3 276.4 229.4"/><path d="M311.2,194.6h10.5c17.7,0,29-12.5,29-31.6V147.5c0-19.1-11.3-31.6-29-31.6h-29V248.3l18.5-8Zm0-59.8h9.6c7.2,0,11.4,4.6,11.4,12.3v16.3c0,7.7-4.2,12.3-11.4,12.3h-9.6Z"/><path class="cls-5" d="M311.2,194.6h10.5c17.7,0,29-12.5,29-31.6V147.5c0-19.1-11.3-31.6-29-31.6h-29V248.3l18.5-8Zm0-59.8h9.6c7.2,0,11.4,4.6,11.4,12.3v16.3c0,7.7-4.2,12.3-11.4,12.3h-9.6Z"/><path d="M383.9,193.6h9.7L407,248.3l17.2-8-13.5-51.2c8-5.3,12.8-14.8,12.8-27.1V147.5c0-19.1-11.4-31.6-29.1-31.6h-29V248.3l18.5-8Zm0-58.8h9.7c7.1,0,11.3,4.6,11.3,12.3v15.3c0,7.8-4.2,12.3-11.3,12.3h-9.7Z"/><path class="cls-6" d="M383.9,193.6h9.7L407,248.3l17.2-8-13.5-51.2c8-5.3,12.8-14.8,12.8-27.1V147.5c0-19.1-11.4-31.6-29.1-31.6h-29V248.3l18.5-8Zm0-58.8h9.7c7.1,0,11.3,4.6,11.3,12.3v15.3c0,7.8-4.2,12.3-11.3,12.3h-9.7Z"/><path d="M496.1,218.2V146c0-19.1-11.9-32-29.7-32s-29.8,12.9-29.8,32v72.2c0,19.1,11.9,32,29.8,32S496.1,237.3,496.1,218.2Zm-18.5,0c0,8.3-4.4,13-11.2,13s-11.2-4.7-11.2-13V146c0-8.3,4.4-13.1,11.2-13.1s11.2,4.8,11.2,13.1Z"/><path class="cls-7" d="M496.1,218.2V146c0-19.1-11.9-32-29.7-32s-29.8,12.9-29.8,32v72.2c0,19.1,11.9,32,29.8,32S496.1,237.3,496.1,218.2Zm-18.5,0c0,8.3-4.4,13-11.2,13s-11.2-4.7-11.2-13V146c0-8.3,4.4-13.1,11.2-13.1s11.2,4.8,11.2,13.1Z"/><rect width="500" height="91.26"/><rect class="cls-8" width="500" height="91.26"/></g></g></svg>